<svg width="16" height="16" viewBox="0 0 16 16" fill="none" xmlns="http://www.w3.org/2000/svg">
<g opacity="0.9">
<path fill-rule="evenodd" clip-rule="evenodd" d="M8.00016 1.33301C4.31976 1.33301 1.3335 4.31927 1.3335 7.99966C1.3335 11.6801 4.31976 14.6663 8.00016 14.6663C11.6733 14.6663 14.6668 11.6801 14.6668 7.99966C14.6668 4.31927 11.6733 1.33301 8.00016 1.33301ZM12.4036 4.40603C13.199 5.37494 13.6763 6.61138 13.6907 7.94904C13.5027 7.91291 11.6227 7.52966 9.72829 7.76829C9.68492 7.67429 9.64874 7.57304 9.60537 7.47183C9.48967 7.19708 9.35954 6.91508 9.22937 6.64754C11.3263 5.79433 12.2807 4.56511 12.4036 4.40603ZM8.00016 2.31638C9.44629 2.31638 10.7695 2.85868 11.7745 3.74805C11.6733 3.89266 10.8128 5.04233 8.78829 5.80154C7.85553 4.08788 6.82158 2.68514 6.6625 2.46821C7.08908 2.36699 7.53741 2.31638 8.00016 2.31638ZM5.57792 2.85144C5.72974 3.0539 6.74204 4.46388 7.68925 6.14138C5.02836 6.85 2.6784 6.83554 2.42532 6.83554C2.79409 5.07125 3.98714 3.60343 5.57792 2.85144ZM2.3024 8.00691C2.3024 7.94904 2.3024 7.8912 2.3024 7.83338C2.54825 7.84058 5.31036 7.87675 8.152 7.02354C8.31833 7.34166 8.47016 7.66704 8.61479 7.99241C8.54246 8.01412 8.46292 8.03583 8.39062 8.0575C5.45497 9.00471 3.89315 11.5933 3.763 11.8102C2.85916 10.8051 2.3024 9.4675 2.3024 8.00691ZM8.00016 13.6974C6.68416 13.6974 5.46943 13.2491 4.50775 12.4971C4.60898 12.2875 5.76587 10.0604 8.97629 8.93966C8.99074 8.93241 8.998 8.93241 9.01246 8.9252C9.81504 11.0003 10.1404 12.7429 10.2272 13.2419C9.54029 13.5383 8.78829 13.6974 8.00016 13.6974ZM11.1744 12.7213C11.1165 12.3742 10.8128 10.7111 10.0682 8.66487C11.8542 8.38287 13.4159 8.84566 13.6112 8.91074C13.3653 10.4943 12.4543 11.8608 11.1744 12.7213Z" fill="#9098A0"/>
</g>
</svg>
