<svg width="38" height="38" viewBox="0 0 38 38" fill="none" xmlns="http://www.w3.org/2000/svg">
<mask id="mask0_2010_7597" style="mask-type:luminance" maskUnits="userSpaceOnUse" x="0" y="0" width="38" height="38">
<path d="M37.4001 0.447021H0.600098V37.2471H37.4001V0.447021Z" fill="white"/>
</mask>
<g mask="url(#mask0_2010_7597)">
<path d="M31.9796 8.04168L20.7171 2.65899C19.5224 2.08202 18.1139 2.16009 16.99 2.86638L5.36846 10.1847C4.24457 10.891 3.56409 12.1291 3.56986 13.4558L3.61268 25.9013C3.61857 27.3724 4.46225 28.713 5.78698 29.3548L17.0495 34.7375C18.2441 35.3145 19.6526 35.2365 20.7765 34.5302L32.398 27.2117C33.5219 26.5054 34.2024 25.2674 34.1966 23.9408L34.1749 17.2496L34.1562 11.4952C34.1504 10.024 33.3066 8.68357 31.9844 8.04408L31.9796 8.04168Z" fill="white" stroke="#31373D" stroke-miterlimit="10"/>
<g opacity="0.8">
<mask id="path-3-inside-1_2010_7597" fill="white">
<path d="M16.089 30.3621L8.05857 26.5228C7.23757 26.125 6.70293 25.2762 6.70008 24.3615L6.66943 15.3754"/>
</mask>
<path d="M16.089 30.3621L8.05857 26.5228C7.23757 26.125 6.70293 25.2762 6.70008 24.3615L6.66943 15.3754" fill="white"/>
<path d="M8.05857 26.5228L7.62249 27.4227L7.62723 27.425L8.05857 26.5228ZM6.70008 24.3615L7.70008 24.3584L7.70008 24.3581L6.70008 24.3615ZM16.5203 29.4599L8.4899 25.6206L7.62723 27.425L15.6576 31.2643L16.5203 29.4599ZM8.49464 25.6229C8.0174 25.3916 7.70174 24.8908 7.70008 24.3584L5.70009 24.3646C5.70413 25.6616 6.45774 26.8583 7.62249 27.4227L8.49464 25.6229ZM7.70008 24.3581L7.66943 15.372L5.66944 15.3788L5.70009 24.3649L7.70008 24.3581Z" fill="#31373D" mask="url(#path-3-inside-1_2010_7597)"/>
<path d="M16.089 30.3621L8.05857 26.5228C7.23757 26.125 6.70293 25.2762 6.70008 24.3615L6.66943 15.3754" stroke="#31373D" stroke-width="0.8" stroke-miterlimit="10"/>
<mask id="path-6-inside-2_2010_7597" fill="white">
<path d="M8.28564 14.1744L16.418 17.6664C17.3796 18.089 18.0039 18.9738 18.0072 19.9276L18.0398 28.1984"/>
</mask>
<path d="M8.28564 14.1744L16.418 17.6664C17.3796 18.089 18.0039 18.9738 18.0072 19.9276L18.0398 28.1984" fill="white"/>
<path d="M16.418 17.6664L16.8203 16.7509L16.8126 16.7476L16.418 17.6664ZM18.0072 19.9276L17.0072 19.9311L17.0072 19.9315L18.0072 19.9276ZM7.89109 15.0933L16.0234 18.5853L16.8126 16.7476L8.6802 13.2556L7.89109 15.0933ZM16.0157 18.5819C16.6645 18.8671 17.0054 19.4239 17.0072 19.9311L19.0072 19.9241C19.0023 18.5237 18.0946 17.3109 16.8203 16.7509L16.0157 18.5819ZM17.0072 19.9315L17.0398 28.2024L19.0398 28.1945L19.0072 19.9236L17.0072 19.9315Z" fill="#31373D" mask="url(#path-6-inside-2_2010_7597)"/>
<path d="M9.75488 14.78L16.6621 18.1213C17.4788 18.5256 18.009 19.3722 18.0119 20.2848L18.0395 28.1986" stroke="#31373D" stroke-width="0.8" stroke-miterlimit="10"/>
<mask id="path-9-inside-3_2010_7597" fill="white">
<path d="M6.68705 19.0893L6.67285 14.6247C6.67256 14.2242 6.95035 14.0051 7.07066 13.9284C7.19097 13.8539 7.51038 13.6962 7.87162 13.871L10.1595 14.9767"/>
</mask>
<path d="M6.68705 19.0893L6.67285 14.6247C6.67256 14.2242 6.95035 14.0051 7.07066 13.9284C7.19097 13.8539 7.51038 13.6962 7.87162 13.871L10.1595 14.9767" fill="white"/>
<path d="M6.67285 14.6247L5.67285 14.6255L5.67286 14.6279L6.67285 14.6247ZM7.07066 13.9284L6.54394 13.0783L6.5333 13.0851L7.07066 13.9284ZM7.87162 13.871L7.4361 14.7712L7.43649 14.7713L7.87162 13.871ZM7.68705 19.0861L7.67285 14.6215L5.67286 14.6279L5.68706 19.0925L7.68705 19.0861ZM7.67285 14.624C7.67286 14.6421 7.6693 14.6672 7.6597 14.6941C7.65062 14.7195 7.63928 14.7379 7.63112 14.749C7.62345 14.7593 7.61777 14.7645 7.61613 14.7659C7.61436 14.7674 7.61228 14.7691 7.60802 14.7718L6.5333 13.0851C6.31761 13.2225 5.67217 13.7041 5.67285 14.6255L7.67285 14.624ZM7.59734 14.7785C7.59377 14.7807 7.5919 14.7816 7.59016 14.7824C7.58862 14.783 7.58187 14.7859 7.56938 14.7883C7.55608 14.7908 7.53443 14.7932 7.50712 14.7903C7.47819 14.7873 7.45328 14.7795 7.4361 14.7712L8.30715 12.9708C7.47332 12.5674 6.75551 12.9473 6.54398 13.0784L7.59734 14.7785ZM7.43649 14.7713L9.72434 15.877L10.5946 14.0763L8.30676 12.9706L7.43649 14.7713Z" fill="#31373D" mask="url(#path-9-inside-3_2010_7597)"/>
<path d="M6.68705 19.0893L6.67285 14.6247C6.67256 14.2242 6.95035 14.0051 7.07066 13.9284C7.19097 13.8539 7.51038 13.6962 7.87162 13.871L10.1595 14.9767" stroke="#31373D" stroke-width="0.8" stroke-miterlimit="10"/>
<mask id="path-12-inside-4_2010_7597" fill="white">
<path d="M18.0273 25.1501L18.0439 30.0415C18.0442 30.4397 17.784 30.6478 17.6725 30.718C17.5608 30.7882 17.2611 30.935 16.9021 30.7602L11.8447 28.3477"/>
</mask>
<path d="M18.0273 25.1501L18.0439 30.0415C18.0442 30.4397 17.784 30.6478 17.6725 30.718C17.5608 30.7882 17.2611 30.935 16.9021 30.7602L11.8447 28.3477" fill="white"/>
<path d="M18.0439 30.0415L19.0439 30.0408L19.0439 30.0381L18.0439 30.0415ZM17.6725 30.718L18.2045 31.5647L18.205 31.5644L17.6725 30.718ZM16.9021 30.7602L17.3398 29.8611L17.3327 29.8577L16.9021 30.7602ZM17.0273 25.1536L17.0439 30.0449L19.0439 30.0381L19.0273 25.1467L17.0273 25.1536ZM17.0439 30.0422C17.0439 30.0306 17.0462 30.0091 17.0551 29.9829C17.0637 29.9577 17.0753 29.937 17.0863 29.9217C17.1047 29.8959 17.1225 29.8826 17.14 29.8716L18.205 31.5644C18.4431 31.4147 19.0446 30.9406 19.0439 30.0408L17.0439 30.0422ZM17.1405 29.8713C17.1538 29.8629 17.1731 29.852 17.2061 29.8462C17.2255 29.8428 17.2505 29.8411 17.2783 29.8445C17.3073 29.848 17.3287 29.8557 17.3398 29.8611L16.4644 31.6593C17.2813 32.057 17.973 31.7102 18.2045 31.5647L17.1405 29.8713ZM17.3327 29.8577L12.2753 27.4451L11.4142 29.2502L16.4715 31.6628L17.3327 29.8577Z" fill="#31373D" mask="url(#path-12-inside-4_2010_7597)"/>
<path d="M18.0273 25.1501L18.0439 30.0415C18.0442 30.4397 17.784 30.6478 17.6725 30.718C17.5608 30.7882 17.2611 30.935 16.9021 30.7602L11.8447 28.3477" stroke="#31373D" stroke-width="0.8" stroke-miterlimit="10"/>
</g>
</g>
</svg>
