<svg width="82" height="34" viewBox="0 0 82 34" fill="none" xmlns="http://www.w3.org/2000/svg">
<g clip-path="url(#clip0_803_54853)">
<path d="M67.0538 5.18848H63.6826V8.68299H67.0538V5.18848Z" fill="white"/>
<path fill-rule="evenodd" clip-rule="evenodd" d="M53.9307 14.1607H50.9702V19.8392C50.9702 20.3125 51.0836 20.6588 51.3119 20.8764C51.5402 21.0956 51.8743 21.2227 52.3126 21.2592C52.7508 21.2766 53.2963 21.2687 53.946 21.2322V24.4265C51.646 24.6997 50.0049 24.4805 49.0211 23.7721C48.0557 23.0446 47.5731 21.7341 47.5731 19.8407V14.1622H45.2822V10.7757H47.5731V8.01833L50.9702 6.9541V10.7774H56.2215V8.01992L59.6187 6.95568V10.779H62.5946V14.1655H59.6187V19.844C59.6187 20.3173 59.7321 20.6635 59.9605 20.8811C60.1888 21.1004 60.5228 21.2274 60.961 21.264C61.3993 21.2815 61.9448 21.2735 62.593 21.2369V24.4312C60.293 24.7044 58.6518 24.4852 57.6681 23.7768C56.7027 23.0493 56.22 21.7389 56.22 19.8455V14.167H53.9292L53.9307 14.1607Z" fill="white"/>
<path d="M67.071 10.7725H63.6738V24.4247H67.071V10.7725Z" fill="white"/>
<path fill-rule="evenodd" clip-rule="evenodd" d="M75.0747 10.4189C71.2499 10.4189 68.1484 13.6339 68.1484 17.6001C68.1484 21.5664 71.2499 24.7812 75.0747 24.7812C78.8994 24.7812 82.0012 21.5664 82.0012 17.6001C82.0012 13.6339 78.9009 10.4189 75.0747 10.4189ZM75.0624 21.3964C73.0335 21.3964 71.3878 19.6904 71.3878 17.5874C71.3878 15.4844 73.0335 13.7784 75.0624 13.7784C77.0912 13.7784 78.7354 15.4827 78.7354 17.5874C78.7354 19.692 77.0912 21.3964 75.0624 21.3964Z" fill="white"/>
<path fill-rule="evenodd" clip-rule="evenodd" d="M40.8295 10.7462V11.5038C39.7676 10.8176 38.5142 10.4189 37.1704 10.4189C33.3456 10.4189 30.2441 13.6339 30.2441 17.6001C30.2441 21.5664 33.3456 24.7812 37.1704 24.7812C38.5142 24.7812 39.7676 24.3841 40.8295 23.6964V24.4541H44.2007V10.7462H40.8295ZM37.1581 21.3964C35.1292 21.3964 33.4836 19.6904 33.4836 17.5874C33.4836 15.4844 35.1292 13.7784 37.1581 13.7784C39.1869 13.7784 40.7974 15.4494 40.8295 17.5238V17.6493C40.7974 19.7238 39.167 21.3947 37.1581 21.3947V21.3964Z" fill="white"/>
<path d="M24.3979 19.0079L22.3384 15.5913C22.3384 15.5913 22.3307 15.577 22.3262 15.5706L22.1637 15.3022C21.8573 14.7923 21.3271 14.4874 20.7478 14.4857L17.4303 14.4746L17.1989 14.8591L13.2348 21.435L13.0156 21.7987L14.6767 24.5498C14.9832 25.0614 15.5133 25.3663 16.0972 25.3663H20.7463C21.3194 25.3663 21.8619 25.0534 22.1653 24.5514L22.3292 24.2799C22.3292 24.2799 22.3353 24.2719 22.3369 24.2687L24.3994 20.8473C24.738 20.2882 24.738 19.5654 24.3994 19.0079H24.3979ZM23.7696 20.4391L21.7071 23.8605C21.6979 23.8764 21.6871 23.889 21.6779 23.9018C21.6059 23.9859 21.5125 23.9971 21.4711 23.9971C21.4236 23.9971 21.3071 23.9828 21.232 23.8589L19.1696 20.4375C19.1465 20.3994 19.1266 20.3597 19.1082 20.3167C19.0899 20.2754 19.0761 20.2342 19.0638 20.1913C19.0179 20.0198 19.0179 19.8355 19.0638 19.6639C19.0868 19.5798 19.122 19.4956 19.168 19.4193L21.2274 16.0011C21.2274 16.0011 21.2305 15.9964 21.232 15.9931C21.2811 15.9169 21.3424 15.882 21.396 15.8708C21.4175 15.8645 21.4359 15.8629 21.4512 15.8598C21.4588 15.8598 21.4665 15.8598 21.4742 15.8598C21.5216 15.8598 21.6396 15.8756 21.7132 15.9995L23.7726 19.4162C23.9611 19.7274 23.9611 20.1278 23.7726 20.4391H23.7696Z" fill="white"/>
<path d="M18.3038 10.7402C18.6409 10.1795 18.6409 9.45835 18.3038 8.90084L16.2443 5.48419L16.0727 5.19669C15.7647 4.68682 15.2345 4.38184 14.6522 4.38184H10.0031C9.42237 4.38184 8.89216 4.68682 8.58261 5.19828L0.257432 19.0094C0.0904083 19.2858 0 19.6051 0 19.9291C0 20.2531 0.0888757 20.5724 0.255901 20.8472L2.48852 24.5529C2.79651 25.0643 3.32671 25.3677 3.90746 25.3677H8.55654C9.14038 25.3677 9.67059 25.0628 9.97702 24.5513L10.1472 24.2717C10.1472 24.2717 10.1472 24.2717 10.1472 24.2686L10.1502 24.2622L11.8097 21.5111L16.7285 13.3515L18.3007 10.7418L18.3038 10.7402ZM17.818 9.82053C17.818 9.99682 17.7705 10.1747 17.674 10.332L9.51889 23.8619C9.44533 23.9843 9.32734 23.9985 9.27986 23.9985C9.2323 23.9985 9.11586 23.9843 9.04083 23.8619L6.9798 20.439C6.79285 20.1292 6.79285 19.7305 6.9798 19.4176L15.1349 5.89082C15.2085 5.76692 15.3265 5.75263 15.3739 5.75263C15.4214 5.75263 15.5394 5.76692 15.6145 5.8924L17.674 9.30909C17.7705 9.46634 17.818 9.64416 17.818 9.82053Z" fill="white"/>
</g>
<defs>
<clipPath id="clip0_803_54853">
<rect width="82" height="34" fill="white"/>
</clipPath>
</defs>
</svg>
