<svg width="16" height="16" viewBox="0 0 16 16" fill="none" xmlns="http://www.w3.org/2000/svg">
<g opacity="0.9">
<path d="M13.3464 1.30664H1.98437C1.4401 1.30664 1 1.73633 1 2.26758V13.6765C1 14.2077 1.4401 14.64 1.98437 14.64H13.3464C13.8907 14.64 14.3333 14.2077 14.3333 13.679V2.26758C14.3333 1.73633 13.8907 1.30664 13.3464 1.30664ZM4.95573 12.6686H2.97656V6.30403H4.95573V12.6686ZM3.96614 5.43684C3.33073 5.43684 2.8177 4.92382 2.8177 4.29102C2.8177 3.6582 3.33073 3.14518 3.96614 3.14518C4.59896 3.14518 5.11198 3.6582 5.11198 4.29102C5.11198 4.92121 4.59896 5.43684 3.96614 5.43684ZM12.362 12.6686H10.3854V9.57484C10.3854 8.83787 10.3724 7.88736 9.35677 7.88736C8.32812 7.88736 8.17188 8.69204 8.17188 9.52275V12.6686H6.19791V6.30403H8.09375V7.17382H8.11979C8.38281 6.67382 9.02865 6.14517 9.98962 6.14517C11.9922 6.14517 12.362 7.46287 12.362 9.17641V12.6686Z" fill="#9098A0"/>
</g>
</svg>
