<svg width="24" height="24" viewBox="0 0 24 24" fill="none" xmlns="http://www.w3.org/2000/svg">
<g opacity="0.9">
<path d="M7.92098 21C16.2208 21 20.7617 14.0742 20.7617 8.0699C20.7617 7.87521 20.7575 7.67617 20.7488 7.48147C21.6322 6.83819 22.3946 6.04142 23 5.12856C22.1773 5.49713 21.3038 5.73785 20.4094 5.84248C21.3512 5.27405 22.0563 4.38106 22.3941 3.32906C21.5081 3.85778 20.5392 4.23073 19.529 4.43195C18.8483 3.70364 17.9482 3.22139 16.968 3.05979C15.9879 2.89821 14.982 3.06626 14.1063 3.53797C13.2304 4.00969 12.5333 4.7588 12.1227 5.66948C11.7121 6.58017 11.6108 7.60169 11.8346 8.57614C10.0406 8.48549 8.28561 8.01623 6.68332 7.19877C5.08103 6.38132 3.66722 5.23392 2.53356 3.83097C1.95737 4.8313 1.78106 6.01501 2.04044 7.14154C2.29983 8.26807 2.97547 9.25286 3.93003 9.8958C3.21341 9.8729 2.51247 9.67861 1.88516 9.32899V9.38525C1.88452 10.435 2.24492 11.4526 2.90511 12.2651C3.56532 13.0775 4.48455 13.6347 5.50657 13.8418C4.84271 14.0247 4.14599 14.0514 3.47028 13.9197C3.75867 14.8225 4.31977 15.6121 5.07529 16.1783C5.8308 16.7445 6.74303 17.0593 7.68464 17.0783C6.08606 18.3427 4.11133 19.0285 2.07851 19.0253C1.71801 19.0247 1.35787 19.0025 1 18.9587C3.06513 20.2927 5.46741 21.0013 7.92098 21Z" fill="#31373D"/>
</g>
</svg>
